<?xml version="1.0" standalone="no"?>
<svg xmlns:xlink="http://www.w3.org/1999/xlink" id="wave" style="transform:rotate(0deg); transition: 0.3s" viewBox="0 0 1440 490" version="1.1" xmlns="http://www.w3.org/2000/svg"><defs><linearGradient id="sw-gradient-0" x1="0" x2="0" y1="1" y2="0"><stop stop-color="rgba(62, 212.344, 243, 1)" offset="0%"/><stop stop-color="rgba(61.835, 137.969, 216.615, 1)" offset="100%"/></linearGradient></defs><path style="transform:translate(0, 0px); opacity:1" fill="url(#sw-gradient-0)" d="M0,98L60,138.8C120,180,240,261,360,302.2C480,343,600,343,720,359.3C840,376,960,408,1080,351.2C1200,294,1320,147,1440,122.5C1560,98,1680,196,1800,269.5C1920,343,2040,392,2160,375.7C2280,359,2400,278,2520,204.2C2640,131,2760,65,2880,81.7C3000,98,3120,196,3240,220.5C3360,245,3480,196,3600,187.8C3720,180,3840,212,3960,196C4080,180,4200,114,4320,106.2C4440,98,4560,147,4680,147C4800,147,4920,98,5040,130.7C5160,163,5280,278,5400,302.2C5520,327,5640,261,5760,228.7C5880,196,6000,196,6120,187.8C6240,180,6360,163,6480,196C6600,229,6720,310,6840,285.8C6960,261,7080,131,7200,122.5C7320,114,7440,229,7560,302.2C7680,376,7800,408,7920,359.3C8040,310,8160,180,8280,155.2C8400,131,8520,212,8580,253.2L8640,294L8640,490L8580,490C8520,490,8400,490,8280,490C8160,490,8040,490,7920,490C7800,490,7680,490,7560,490C7440,490,7320,490,7200,490C7080,490,6960,490,6840,490C6720,490,6600,490,6480,490C6360,490,6240,490,6120,490C6000,490,5880,490,5760,490C5640,490,5520,490,5400,490C5280,490,5160,490,5040,490C4920,490,4800,490,4680,490C4560,490,4440,490,4320,490C4200,490,4080,490,3960,490C3840,490,3720,490,3600,490C3480,490,3360,490,3240,490C3120,490,3000,490,2880,490C2760,490,2640,490,2520,490C2400,490,2280,490,2160,490C2040,490,1920,490,1800,490C1680,490,1560,490,1440,490C1320,490,1200,490,1080,490C960,490,840,490,720,490C600,490,480,490,360,490C240,490,120,490,60,490L0,490Z"/></svg>